<mxfile host="www.draw.io" modified="2020-02-16T07:31:05.048Z" agent="Mozilla/5.0 (Windows NT 10.0; Win64; x64) AppleWebKit/537.36 (KHTML, like Gecko) Chrome/79.0.3945.130 Safari/537.36" etag="ajJ2b3wHXGUClVp6T4bU" version="12.7.0" type="github">
  <diagram id="C5RBs43oDa-KdzZeNtuy" name="Page-1">
    <mxGraphModel dx="1422" dy="762" grid="1" gridSize="10" guides="1" tooltips="1" connect="1" arrows="1" fold="1" page="1" pageScale="1" pageWidth="827" pageHeight="1169" math="0" shadow="0">
      <root>
        <mxCell id="WIyWlLk6GJQsqaUBKTNV-0"/>
        <mxCell id="WIyWlLk6GJQsqaUBKTNV-1" parent="WIyWlLk6GJQsqaUBKTNV-0"/>
        <mxCell id="cTmuQcR7d0bJ-_1gW37k-0" value="散户" style="shape=umlActor;verticalLabelPosition=bottom;labelBackgroundColor=#ffffff;verticalAlign=top;html=1;outlineConnect=0;fillColor=#ffe6cc;strokeColor=#d79b00;" vertex="1" parent="WIyWlLk6GJQsqaUBKTNV-1">
          <mxGeometry x="205" y="200" width="30" height="60" as="geometry"/>
        </mxCell>
        <mxCell id="cTmuQcR7d0bJ-_1gW37k-14" style="edgeStyle=orthogonalEdgeStyle;rounded=0;orthogonalLoop=1;jettySize=auto;html=1;" edge="1" parent="WIyWlLk6GJQsqaUBKTNV-1" source="cTmuQcR7d0bJ-_1gW37k-7" target="cTmuQcR7d0bJ-_1gW37k-9">
          <mxGeometry relative="1" as="geometry"/>
        </mxCell>
        <mxCell id="cTmuQcR7d0bJ-_1gW37k-7" value="散户" style="shape=umlActor;verticalLabelPosition=bottom;labelBackgroundColor=#ffffff;verticalAlign=top;html=1;outlineConnect=0;fillColor=#ffe6cc;strokeColor=#d79b00;" vertex="1" parent="WIyWlLk6GJQsqaUBKTNV-1">
          <mxGeometry x="205" y="312" width="30" height="60" as="geometry"/>
        </mxCell>
        <mxCell id="cTmuQcR7d0bJ-_1gW37k-8" value="散户" style="shape=umlActor;verticalLabelPosition=bottom;labelBackgroundColor=#ffffff;verticalAlign=top;html=1;outlineConnect=0;fillColor=#ffe6cc;strokeColor=#d79b00;" vertex="1" parent="WIyWlLk6GJQsqaUBKTNV-1">
          <mxGeometry x="205" y="420" width="30" height="60" as="geometry"/>
        </mxCell>
        <mxCell id="cTmuQcR7d0bJ-_1gW37k-21" style="edgeStyle=orthogonalEdgeStyle;rounded=0;orthogonalLoop=1;jettySize=auto;html=1;entryX=0;entryY=0.5;entryDx=0;entryDy=0;" edge="1" parent="WIyWlLk6GJQsqaUBKTNV-1" source="cTmuQcR7d0bJ-_1gW37k-9" target="cTmuQcR7d0bJ-_1gW37k-17">
          <mxGeometry relative="1" as="geometry"/>
        </mxCell>
        <mxCell id="cTmuQcR7d0bJ-_1gW37k-22" style="edgeStyle=orthogonalEdgeStyle;rounded=0;orthogonalLoop=1;jettySize=auto;html=1;entryX=0;entryY=0.5;entryDx=0;entryDy=0;" edge="1" parent="WIyWlLk6GJQsqaUBKTNV-1" source="cTmuQcR7d0bJ-_1gW37k-9" target="cTmuQcR7d0bJ-_1gW37k-18">
          <mxGeometry relative="1" as="geometry"/>
        </mxCell>
        <mxCell id="cTmuQcR7d0bJ-_1gW37k-23" style="edgeStyle=orthogonalEdgeStyle;rounded=0;orthogonalLoop=1;jettySize=auto;html=1;entryX=0;entryY=0.5;entryDx=0;entryDy=0;" edge="1" parent="WIyWlLk6GJQsqaUBKTNV-1" source="cTmuQcR7d0bJ-_1gW37k-9" target="cTmuQcR7d0bJ-_1gW37k-19">
          <mxGeometry relative="1" as="geometry"/>
        </mxCell>
        <mxCell id="cTmuQcR7d0bJ-_1gW37k-24" style="edgeStyle=orthogonalEdgeStyle;rounded=0;orthogonalLoop=1;jettySize=auto;html=1;entryX=0;entryY=0.5;entryDx=0;entryDy=0;" edge="1" parent="WIyWlLk6GJQsqaUBKTNV-1" source="cTmuQcR7d0bJ-_1gW37k-9" target="cTmuQcR7d0bJ-_1gW37k-20">
          <mxGeometry relative="1" as="geometry"/>
        </mxCell>
        <mxCell id="cTmuQcR7d0bJ-_1gW37k-9" value="投资公司" style="ellipse;shape=cloud;whiteSpace=wrap;html=1;fillColor=#f5f5f5;strokeColor=#666666;fontColor=#333333;" vertex="1" parent="WIyWlLk6GJQsqaUBKTNV-1">
          <mxGeometry x="355" y="302" width="120" height="80" as="geometry"/>
        </mxCell>
        <mxCell id="cTmuQcR7d0bJ-_1gW37k-10" value="" style="endArrow=classic;html=1;entryX=0.07;entryY=0.4;entryDx=0;entryDy=0;entryPerimeter=0;" edge="1" parent="WIyWlLk6GJQsqaUBKTNV-1" source="cTmuQcR7d0bJ-_1gW37k-0" target="cTmuQcR7d0bJ-_1gW37k-9">
          <mxGeometry width="50" height="50" relative="1" as="geometry">
            <mxPoint x="205" y="570" as="sourcePoint"/>
            <mxPoint x="255" y="520" as="targetPoint"/>
          </mxGeometry>
        </mxCell>
        <mxCell id="cTmuQcR7d0bJ-_1gW37k-16" value="" style="endArrow=classic;html=1;exitX=1;exitY=0.3333333333333333;exitDx=0;exitDy=0;exitPerimeter=0;" edge="1" parent="WIyWlLk6GJQsqaUBKTNV-1" source="cTmuQcR7d0bJ-_1gW37k-8" target="cTmuQcR7d0bJ-_1gW37k-9">
          <mxGeometry width="50" height="50" relative="1" as="geometry">
            <mxPoint x="345" y="530" as="sourcePoint"/>
            <mxPoint x="395" y="480" as="targetPoint"/>
          </mxGeometry>
        </mxCell>
        <mxCell id="cTmuQcR7d0bJ-_1gW37k-17" value="股票" style="rounded=1;whiteSpace=wrap;html=1;fillColor=#dae8fc;strokeColor=#6c8ebf;" vertex="1" parent="WIyWlLk6GJQsqaUBKTNV-1">
          <mxGeometry x="545" y="222" width="76" height="38" as="geometry"/>
        </mxCell>
        <mxCell id="cTmuQcR7d0bJ-_1gW37k-18" value="债券" style="rounded=1;whiteSpace=wrap;html=1;fillColor=#d5e8d4;strokeColor=#82b366;" vertex="1" parent="WIyWlLk6GJQsqaUBKTNV-1">
          <mxGeometry x="545" y="296" width="76" height="38" as="geometry"/>
        </mxCell>
        <mxCell id="cTmuQcR7d0bJ-_1gW37k-19" value="黄金" style="rounded=1;whiteSpace=wrap;html=1;fillColor=#e1d5e7;strokeColor=#9673a6;" vertex="1" parent="WIyWlLk6GJQsqaUBKTNV-1">
          <mxGeometry x="545" y="372" width="76" height="38" as="geometry"/>
        </mxCell>
        <mxCell id="cTmuQcR7d0bJ-_1gW37k-20" value="国债" style="rounded=1;whiteSpace=wrap;html=1;fillColor=#f8cecc;strokeColor=#b85450;" vertex="1" parent="WIyWlLk6GJQsqaUBKTNV-1">
          <mxGeometry x="545" y="448" width="76" height="38" as="geometry"/>
        </mxCell>
        <mxCell id="cTmuQcR7d0bJ-_1gW37k-25" value="分散投资" style="text;html=1;strokeColor=none;fillColor=none;align=center;verticalAlign=middle;whiteSpace=wrap;rounded=0;" vertex="1" parent="WIyWlLk6GJQsqaUBKTNV-1">
          <mxGeometry x="450" y="296" width="60" height="20" as="geometry"/>
        </mxCell>
        <mxCell id="cTmuQcR7d0bJ-_1gW37k-26" value="&lt;b&gt;......&lt;/b&gt;" style="text;html=1;strokeColor=none;fillColor=none;align=center;verticalAlign=middle;whiteSpace=wrap;rounded=0;" vertex="1" parent="WIyWlLk6GJQsqaUBKTNV-1">
          <mxGeometry x="563" y="340" width="40" height="20" as="geometry"/>
        </mxCell>
        <mxCell id="cTmuQcR7d0bJ-_1gW37k-27" value="购买基金" style="text;html=1;strokeColor=none;fillColor=none;align=center;verticalAlign=middle;whiteSpace=wrap;rounded=0;" vertex="1" parent="WIyWlLk6GJQsqaUBKTNV-1">
          <mxGeometry x="260" y="316" width="60" height="20" as="geometry"/>
        </mxCell>
      </root>
    </mxGraphModel>
  </diagram>
</mxfile>
